<svg id="logo" xmlns="http://www.w3.org/2000/svg" width="233.5" height="108.5" viewBox="0 0 233.5 108.5">
  <g id="news-logo" transform="translate(0 0.1)">
    <g id="Group_38" data-name="Group 38">
      <path id="Path_1" data-name="Path 1" d="M68.3,53.2V1H86c9.9,0,14.8,4.4,14.8,13.2a13.049,13.049,0,0,1-2,7.3A10.228,10.228,0,0,1,93,25.6v.1a10.385,10.385,0,0,1,6.9,3.8,12.87,12.87,0,0,1,2.6,8.3,15.981,15.981,0,0,1-3.8,11C96.1,51.6,92,53,86.2,53H68.3ZM78.9,8.8V22.5h3c2.9,0,5.1-.5,6.4-1.6s2-2.8,2-5.3c0-2.4-.6-4.2-1.8-5.2s-3.1-1.6-5.8-1.6H78.9Zm0,20.9V45.4H83a9.843,9.843,0,0,0,6.3-1.8c1.5-1.2,2.2-3.2,2.2-6.1,0-5.2-2.7-7.8-8-7.8H78.9Z"/>
      <path id="Path_2" data-name="Path 2" d="M109.2,53.2V1h15.6l7.5,36.8h.1L140,1h15.6V53.2H146V11.5h-.1l-9.3,41.7h-8.2L119,11.5h-.1V53.2Z"/>
      <path id="Path_3" data-name="Path 3" d="M195.9,18.6H185.4c0-3.9-.5-6.7-1.4-8.4s-2.6-2.5-4.9-2.5c-2.6,0-4.3,1.5-5.2,4.3-.9,2.9-1.4,8.1-1.4,15.8a70.4,70.4,0,0,0,.8,11.9c.5,2.8,1.2,4.6,2.2,5.4a5.167,5.167,0,0,0,3.8,1.3,5.714,5.714,0,0,0,3.4-.9c.9-.6,1.6-1.9,2.2-3.9a30.594,30.594,0,0,0,.9-8.4h10.5a38.777,38.777,0,0,1-.7,8.1,24.125,24.125,0,0,1-2.4,6.5,11.652,11.652,0,0,1-5.1,4.7,19.377,19.377,0,0,1-8.4,1.6,20.669,20.669,0,0,1-7.9-1.4,14.405,14.405,0,0,1-5.2-3.5,14.894,14.894,0,0,1-3-5.9,39.074,39.074,0,0,1-1.4-7.3q-.3-3.6-.3-9t.3-9a37.593,37.593,0,0,1,1.4-7.3,14.894,14.894,0,0,1,3-5.9,13.25,13.25,0,0,1,5.2-3.5,20.669,20.669,0,0,1,7.9-1.4,18.991,18.991,0,0,1,7.5,1.3,15.252,15.252,0,0,1,4.8,3,14.018,14.018,0,0,1,2.6,4.5,31.284,31.284,0,0,1,1.2,4.9C195.8,15.2,195.9,16.8,195.9,18.6Z"/>
      <path id="Path_4" data-name="Path 4" d="M68.3,55.3H80.4L93.2,91h.1V55.3h9.6v52.2H91L78.1,70.9H78v36.5H68.4V55.3Z" fill="#f9f206"/>
      <path id="Path_5" data-name="Path 5" d="M110.3,55.3h29.2v8.6H120.9V76.2h17.5v8.6H120.9v14h19.4v8.6H110.4V55.3Z" fill="#f9f206"/>
      <path id="Path_6" data-name="Path 6" d="M151.9,107.4l-9.5-52.2h10.1l5.8,38.6h.1l6.1-38.6h10.1l6.1,38.6h.1l5.8-38.6h10.1l-9.5,52.2H175.4l-5.8-37.9h-.1l-5.8,37.9H151.9Z" fill="#f9f206"/>
      <path id="Path_7" data-name="Path 7" d="M199,91.1h10.5v1.5q0,4.05,1.5,6c1,1.3,2.8,2,5.4,2a6.622,6.622,0,0,0,4.5-1.7,6.186,6.186,0,0,0,1.8-4.8,6.7,6.7,0,0,0-2-5.2c-1.3-1.2-3.8-2.4-7.4-3.7q-7.35-2.55-10.5-6c-2.1-2.3-3.2-5.6-3.2-9.8,0-5,1.4-8.8,4.3-11.4s6.8-3.9,11.9-3.9c5,0,8.9,1.1,11.8,3.4s4.3,5.8,4.3,10.6v1.5H221.8c0-5.2-1.9-7.7-5.7-7.7-4,0-6,2-6,6.1a7.115,7.115,0,0,0,1.1,4.1,11.289,11.289,0,0,0,4.3,3l8.1,3.5c3.8,1.7,6.4,3.5,7.8,5.6a14.453,14.453,0,0,1,2.1,8.2c0,10.7-6,16-18.1,16q-8.7,0-12.6-3.9c-2.6-2.6-3.9-6.4-3.9-11.3V91.1Z" fill="#f9f206"/>
    </g>
    <g id="Group_39" data-name="Group 39">
      <path id="Path_8" data-name="Path 8" d="M38.3,22.1H12.8L0,44.2,12.8,66.3H38.3L51.1,44.2Z"/>
      <path id="Path_9" data-name="Path 9" d="M38.3,0H12.8L0,22.1,12.8,44.2H38.3L51.1,22.1Z" fill="#f9f206"/>
    </g>
  </g>
</svg>
